<?xml version='1.0' encoding='utf8'?>
<svg class="toyplot-canvas-Canvas" xmlns:toyplot="http://www.sandia.gov/toyplot" xmlns:xlink="http://www.w3.org/1999/xlink" xmlns="http://www.w3.org/2000/svg" width="1000.0px" height="405.0px" viewBox="0 0 1000.0 405.0" preserveAspectRatio="xMidYMid meet" style="background-color:transparent;border-color:#292724;border-style:none;border-width:1.0;fill:rgb(16.1%,15.3%,14.1%);fill-opacity:1.0;font-family:Helvetica;font-size:12px;opacity:1.0;stroke:rgb(16.1%,15.3%,14.1%);stroke-opacity:1.0;stroke-width:1.0" id="t04a7f96cc1b04c14b426cd6f028b2d04"><g class="toyplot-coordinates-Cartesian" id="t12291d820c3843a689d8f3d09cebb9d9"><clipPath id="t6fda1a908a6c4c02bc7bb1c026fee73b"><rect x="30.0" y="30.0" width="940.0" height="345.0" /></clipPath><g clip-path="url(#t6fda1a908a6c4c02bc7bb1c026fee73b)"><g class="toytree-mark-Toytree" id="tfd684dd8a5f342789756de5ddd0ab080"><g class="toytree-Edges" style="fill:none;stroke:rgb(14.9%,14.9%,14.9%);stroke-linecap:round;stroke-opacity:1;stroke-width:2"><path d="M 51.4 108.8 L 51.4 70.4 L 429.0 70.4" id="32,31" /><path d="M 51.4 108.8 L 51.4 147.1 L 209.1 147.1" id="32,30" /><path d="M 209.1 147.1 L 209.1 110.1 L 287.7 110.1" id="30,29" /><path d="M 209.1 147.1 L 209.1 184.2 L 238.0 184.2" id="30,28" /><path d="M 287.7 110.1 L 287.7 123.3 L 456.8 123.3" id="29,27" /><path d="M 238.0 184.2 L 238.0 158.5 L 536.4 158.5" id="28,26" /><path d="M 238.0 184.2 L 238.0 209.9 L 296.8 209.9" id="28,25" /><path d="M 296.8 209.9 L 296.8 235.0 L 330.3 235.0" id="25,24" /><path d="M 330.3 235.0 L 330.3 267.4 L 378.9 267.4" id="24,23" /><path d="M 378.9 267.4 L 378.9 233.3 L 582.5 233.3" id="23,22" /><path d="M 378.9 267.4 L 378.9 301.5 L 534.7 301.5" id="23,21" /><path d="M 582.5 233.3 L 582.5 246.5 L 622.0 246.5" id="22,20" /><path d="M 534.7 301.5 L 534.7 281.7 L 607.8 281.7" id="21,19" /><path d="M 534.7 301.5 L 534.7 321.4 L 583.7 321.4" id="21,18" /><path d="M 583.7 321.4 L 583.7 334.6 L 623.6 334.6" id="18,17" /><path d="M 429.0 70.4 L 429.0 61.6 L 678.4 61.6" id="31,16" /><path d="M 429.0 70.4 L 429.0 79.2 L 678.4 79.2" id="31,15" /><path d="M 287.7 110.1 L 287.7 96.9 L 678.4 96.9" id="29,14" /><path d="M 456.8 123.3 L 456.8 114.5 L 678.4 114.5" id="27,13" /><path d="M 456.8 123.3 L 456.8 132.1 L 678.4 132.1" id="27,12" /><path d="M 536.4 158.5 L 536.4 149.7 L 678.4 149.7" id="26,11" /><path d="M 536.4 158.5 L 536.4 167.3 L 678.4 167.3" id="26,10" /><path d="M 296.8 209.9 L 296.8 184.9 L 678.4 184.9" id="25,9" /><path d="M 330.3 235.0 L 330.3 202.5 L 678.4 202.5" id="24,8" /><path d="M 582.5 233.3 L 582.5 220.1 L 678.4 220.1" id="22,7" /><path d="M 622.0 246.5 L 622.0 237.7 L 678.4 237.7" id="20,6" /><path d="M 622.0 246.5 L 622.0 255.3 L 678.4 255.3" id="20,5" /><path d="M 607.8 281.7 L 607.8 272.9 L 678.4 272.9" id="19,4" /><path d="M 607.8 281.7 L 607.8 290.5 L 678.4 290.5" id="19,3" /><path d="M 583.7 321.4 L 583.7 308.1 L 678.4 308.1" id="18,2" /><path d="M 623.6 334.6 L 623.6 325.8 L 678.4 325.8" id="17,1" /><path d="M 623.6 334.6 L 623.6 343.4 L 678.4 343.4" id="17,0" /></g><g class="toytree-AlignEdges" style="stroke:rgb(66.3%,66.3%,66.3%);stroke-dasharray:2, 4;stroke-linecap:round;stroke-opacity:1.0;stroke-width:2"><path d="M 678.4 343.4 L 678.4 343.4" /><path d="M 678.4 325.8 L 678.4 325.8" /><path d="M 678.4 308.1 L 678.4 308.1" /><path d="M 678.4 290.5 L 678.4 290.5" /><path d="M 678.4 272.9 L 678.4 272.9" /><path d="M 678.4 255.3 L 678.4 255.3" /><path d="M 678.4 237.7 L 678.4 237.7" /><path d="M 678.4 220.1 L 678.4 220.1" /><path d="M 678.4 202.5 L 678.4 202.5" /><path d="M 678.4 184.9 L 678.4 184.9" /><path d="M 678.4 167.3 L 678.4 167.3" /><path d="M 678.4 149.7 L 678.4 149.7" /><path d="M 678.4 132.1 L 678.4 132.1" /><path d="M 678.4 114.5 L 678.4 114.5" /><path d="M 678.4 96.9 L 678.4 96.9" /><path d="M 678.4 79.2 L 678.4 79.2" /><path d="M 678.4 61.6 L 678.4 61.6" /></g><g class="toytree-TipLabels" style="fill:rgb(14.9%,14.9%,14.9%);fill-opacity:1.0;font-family:helvetica;font-size:11px;font-weight:normal;stroke:none;white-space:pre"><g transform="translate(678.39,343.36)rotate(0)"><a href="https://glottolog.org/resource/languoid/id/veps1250#############"><text x="15.00" y="2.81" style="" fill="#0000ff">Veps - Veps [veps1250#############]</text></a></g><g transform="translate(678.39,325.75)rotate(0)"><a href="https://glottolog.org/resource/languoid/id/kare1335#############"><text x="15.00" y="2.81" style="" fill="#0000ff">Karelian - Karelian [kare1335#############]</text></a></g><g transform="translate(678.39,308.15)rotate(0)"><a href="https://glottolog.org/resource/languoid/id/finn1318#############"><text x="15.00" y="2.81" style="" fill="#0000ff">Finnish - Finnish [finn1318#############]</text></a></g><g transform="translate(678.39,290.54)rotate(0)"><a href="https://glottolog.org/resource/languoid/id/livv1244#############"><text x="15.00" y="2.81" style="" fill="#0000ff">Livonian - Liv [livv1244#############]</text></a></g><g transform="translate(678.39,272.93)rotate(0)"><a href="https://glottolog.org/resource/languoid/id/esto1258#############"><text x="15.00" y="2.81" style="" fill="#0000ff">Estonian - Estonian [esto1258#############]</text></a></g><g transform="translate(678.39,255.32)rotate(0)"><a href="https://glottolog.org/resource/languoid/id/umes1235#############"><text x="15.00" y="2.81" style="" fill="#0000ff">Ume_Sami - Ume Saami [umes1235#############]</text></a></g><g transform="translate(678.39,237.72)rotate(0)"><a href="https://glottolog.org/resource/languoid/id/nort2671#############"><text x="15.00" y="2.81" style="" fill="#0000ff">Northern_Sami - North Saami [nort2671#############]</text></a></g><g transform="translate(678.39,220.11)rotate(0)"><a href="https://glottolog.org/resource/languoid/id/skol1241#############"><text x="15.00" y="2.81" style="" fill="#0000ff">Skolt_Sami - Skolt Saami [skol1241#############]</text></a></g><g transform="translate(678.39,202.50)rotate(0)"><a href="https://glottolog.org/resource/languoid/id/erzy1239#############"><text x="15.00" y="2.81" style="" fill="#0000ff">Mordvin - Erzya [erzy1239#############]</text></a></g><g transform="translate(678.39,184.89)rotate(0)"><a href="https://glottolog.org/resource/languoid/id/east2328#############"><text x="15.00" y="2.81" style="" fill="#0000ff">Mari - Eastern Mari [east2328#############]</text></a></g><g transform="translate(678.39,167.28)rotate(0)"><a href="https://glottolog.org/resource/languoid/id/komi1269#############"><text x="15.00" y="2.81" style="" fill="#0000ff">Komi - Komi-Permyak [komi1269#############]</text></a></g><g transform="translate(678.39,149.68)rotate(0)"><a href="https://glottolog.org/resource/languoid/id/udmu1245#############"><text x="15.00" y="2.81" style="" fill="#0000ff">Udmurt - Udmurt [udmu1245#############]</text></a></g><g transform="translate(678.39,132.07)rotate(0)"><a href="https://glottolog.org/resource/languoid/id/fare1244#############"><text x="15.00" y="2.81" style="" fill="#0000ff">Khanty - Vach-Vasjugan [fare1244#############]</text></a></g><g transform="translate(678.39,114.46)rotate(0)"><a href="https://glottolog.org/resource/languoid/id/mans1258#############"><text x="15.00" y="2.81" style="" fill="#0000ff">Mansi - Northern Mansi [mans1258#############]</text></a></g><g transform="translate(678.39,96.85)rotate(0)"><a href="https://glottolog.org/resource/languoid/id/hung1274#############"><text x="15.00" y="2.81" style="" fill="#0000ff">Hungarian - Hungarian [hung1274#############]</text></a></g><g transform="translate(678.39,79.25)rotate(0)"><a href="https://glottolog.org/resource/languoid/id/nene1249#############"><text x="15.00" y="2.81" style="" fill="#0000ff">Nenets - Tundra Nenets [nene1249#############]</text></a></g><g transform="translate(678.39,61.64)rotate(0)"><a href="https://glottolog.org/resource/languoid/id/selk1253#############"><text x="15.00" y="2.81" style="" fill="#0000ff">Selkup - Selkup [selk1253#############]</text></a></g></g></g></g><g class="toyplot-coordinates-Axis" id="t06937a7b8666436e82d31d2dd144cbdd" transform="translate(50.0,355.0)translate(0,20.0)"><line x1="1.3933344428403616" y1="0" x2="628.3938337210159" y2="0" style="" /><g><line x1="628.3938337210159" y1="0" x2="628.3938337210159" y2="-5" style="" /><line x1="558.7271115789964" y1="0" x2="558.7271115789964" y2="-5" style="" /><line x1="489.06038943697683" y1="0" x2="489.06038943697683" y2="-5" style="" /><line x1="419.3936672949574" y1="0" x2="419.3936672949574" y2="-5" style="" /><line x1="349.7269451529379" y1="0" x2="349.7269451529379" y2="-5" style="" /><line x1="280.0602230109184" y1="0" x2="280.0602230109184" y2="-5" style="" /><line x1="210.3935008688989" y1="0" x2="210.3935008688989" y2="-5" style="" /><line x1="140.7267787268794" y1="0" x2="140.7267787268794" y2="-5" style="" /><line x1="71.06005658485988" y1="0" x2="71.06005658485988" y2="-5" style="" /><line x1="1.3933344428403616" y1="0" x2="1.3933344428403616" y2="-5" style="" /></g><g><g transform="translate(628.3938337210159,6)"><text x="-2.78" y="8.555" style="fill:rgb(16.1%,15.3%,14.1%);fill-opacity:1.0;font-family:helvetica;font-size:10.0px;font-weight:normal;stroke:none;vertical-align:baseline;white-space:pre">0</text></g><g transform="translate(558.7271115789964,6)"><text x="-2.78" y="8.555" style="fill:rgb(16.1%,15.3%,14.1%);fill-opacity:1.0;font-family:helvetica;font-size:10.0px;font-weight:normal;stroke:none;vertical-align:baseline;white-space:pre">6</text></g><g transform="translate(489.06038943697683,6)"><text x="-5.56" y="8.555" style="fill:rgb(16.1%,15.3%,14.1%);fill-opacity:1.0;font-family:helvetica;font-size:10.0px;font-weight:normal;stroke:none;vertical-align:baseline;white-space:pre">12</text></g><g transform="translate(419.3936672949574,6)"><text x="-5.56" y="8.555" style="fill:rgb(16.1%,15.3%,14.1%);fill-opacity:1.0;font-family:helvetica;font-size:10.0px;font-weight:normal;stroke:none;vertical-align:baseline;white-space:pre">18</text></g><g transform="translate(349.7269451529379,6)"><text x="-5.56" y="8.555" style="fill:rgb(16.1%,15.3%,14.1%);fill-opacity:1.0;font-family:helvetica;font-size:10.0px;font-weight:normal;stroke:none;vertical-align:baseline;white-space:pre">23</text></g><g transform="translate(280.0602230109184,6)"><text x="-5.56" y="8.555" style="fill:rgb(16.1%,15.3%,14.1%);fill-opacity:1.0;font-family:helvetica;font-size:10.0px;font-weight:normal;stroke:none;vertical-align:baseline;white-space:pre">29</text></g><g transform="translate(210.3935008688989,6)"><text x="-5.56" y="8.555" style="fill:rgb(16.1%,15.3%,14.1%);fill-opacity:1.0;font-family:helvetica;font-size:10.0px;font-weight:normal;stroke:none;vertical-align:baseline;white-space:pre">35</text></g><g transform="translate(140.7267787268794,6)"><text x="-5.56" y="8.555" style="fill:rgb(16.1%,15.3%,14.1%);fill-opacity:1.0;font-family:helvetica;font-size:10.0px;font-weight:normal;stroke:none;vertical-align:baseline;white-space:pre">41</text></g><g transform="translate(71.06005658485988,6)"><text x="-5.56" y="8.555" style="fill:rgb(16.1%,15.3%,14.1%);fill-opacity:1.0;font-family:helvetica;font-size:10.0px;font-weight:normal;stroke:none;vertical-align:baseline;white-space:pre">47</text></g><g transform="translate(1.3933344428403616,6)"><text x="-5.56" y="8.555" style="fill:rgb(16.1%,15.3%,14.1%);fill-opacity:1.0;font-family:helvetica;font-size:10.0px;font-weight:normal;stroke:none;vertical-align:baseline;white-space:pre">53</text></g></g><g class="toyplot-coordinates-Axis-coordinates" style="visibility:hidden" transform=""><line x1="0" x2="0" y1="-3.0" y2="4.5" style="stroke:rgb(43.9%,50.2%,56.5%);stroke-opacity:1.0;stroke-width:1.0" /><text x="0" y="-6" style="alignment-baseline:alphabetic;fill:rgb(43.9%,50.2%,56.5%);fill-opacity:1.0;font-size:10px;font-weight:normal;stroke:none;text-anchor:middle" /></g></g><g transform="translate(500.0,42.0)"><text x="-278.15900000000005" y="-4.823" style="fill:rgb(16.1%,15.3%,14.1%);fill-opacity:1.0;font-family:helvetica;font-size:14.0px;font-weight:bold;stroke:none;vertical-align:baseline;white-space:pre">Summary tree of a Bayesian analysis of the Uralic family with branches in centuries</text></g></g></svg>